<?xml version="1.0" encoding="UTF-8"?>
<svg id="Layer_1" data-name="Layer 1" xmlns="http://www.w3.org/2000/svg" viewBox="0 0 570.99 141.83">
  <defs>
    <style>
      .cls-1 {
        fill: #231f20;
      }
    </style>
  </defs>
  <g>
    <path class="cls-1" d="M58.52,43.43c3.36,3.07,5.15,6.94,7.69,10.59,1.15,2.23,2.85,2.49,4.7.74,1.52-1.38,2.7-3.2,4.27-4.53,4.67-4.14,10.94-5.83,16.25-9.03,3.67-2.33,8.63-3.04,12.79-2.28,2.25.61,4.41,1.62,6.67,2.18,4.15,1.19,8.71,2.2,11.98,5.03,1.61,1.43,3.1,2.95,4.74,4.35,2.74,2.5,5.3,5.65,6.05,9.19.39,2.57-.64,5.11-1.76,7.38-1.08,2.03-1.94,4.06-3.62,5.58-3.84,3.06-8.75,4.43-12.37,7.86-3.93,2.91-9.11,3.1-13.75,4.1-1.11.21-2.23.33-3.36.24-6.27-.75-11.81-3.78-17.61-6.25-2.04-.92-3.81-2.29-5.62-3.56-3.95-2.71-9.33-4.94-13.35-1.1-3.48,2.3-7.06,4.64-10.86,6.38-3.3.94-6.91.78-10.19,1.99-4.07,1.18-8.4.4-12.48-.3-4.56-.16-9.3-.92-12.71-4.26-2.89-3.21-5.29-7.29-6.31-11.49-.93-5.65,1.97-10.73,3.89-15.8,1.36-4.04,4.28-7.45,7.6-10.12,2.38-1.65,5.43-2.46,8.22-3.47,3.82-1.3,7.5-2.43,11.71-1.63,6.9,1.6,12.84,4.29,17.27,8.08l.16.14ZM48.47,52.92c-8.02-2.28-14.97-3.82-21.66,2.71-1.53,1.96-1.43,4.77-1.95,7.27-.41,1.61.01,3.58,1.79,4.08,1.92.64,4.11-.29,6.01.04,2.06.31,7.36,1.85,9.51,2.09,4.13-.09,4.84-.92,8.89-1.64,3.43-1.01,6.77-2.23,10.27-2.98,1.27-.36,3.19-1.3,2.42-2.81-1.39-2.23-3.57-4.04-5.81-5.24M112.49,63.31c7.26-7.89-10.97-10.03-15.69-8.45-1.96.42-3.94.03-5.91-.02-3.01-.11-5.62,1.61-8.34,2.57-6.43,2.02-17.61,7.02-3.99,10.63,4.64,2.11,9.72,3.58,14.85,2.77,6.99.22,13.85-2.54,18.93-7.34l.15-.16Z"/>
    <path class="cls-1" d="M124.18,82.54c2.72.56,3.74,3.66,4.46,6.04,1.77,5.03,4.06,6.94,3.49,12.39-.11,1.87-.06,3.74-.05,5.61.04,3.64-1.55,7.7-4.46,10.04-3.71,2.98-10.46,6.71-13.8,1.35-2.57-3.24-3.16-13.15-8.52-12.06-2.2.69-2.83,3.6-3.66,5.84-1.39,3.39-.94,7.56-3.24,10.47-1.35,1.55-3.4,2.07-5.24,2.88-4.1,1.82-8.21,1.78-11.04-1.92-7.69-9.57-9.82-9.53-8.5-22.49.46-5.64.01-10.43,6.8-11.72,1.66-.35,3.1.31,4.67.81,1.55.52,3.12.51,4.72.53,2.45-.03,4.93.81,7.4.9,4.43-.21,9.34-.98,13.51-2.75,2.82-1.18,5.93-1.85,8.3-3.69,1.43-1.09,3.06-2.55,4.98-2.27l.2.03Z"/>
    <path class="cls-1" d="M19.4,85.48c3.53,2.91,7.12,3.14,11.56,2.95,7.56.25,15.31-2.84,22.53.65,4.95.94,8.79,1.38,8.19,6.86-.22,2.08-.88,3.85-.72,6.04.11,3.32,1.31,5.96.33,9.13-1.57,4.37-4.04,8.9-8.77,10.49-4.48,1.82-10.16,3.38-14.15-.1-2.74-2.7-2.24-8.1-2.85-12.14-.12-2.78-2.43-5.21-5.36-4.52-3.52.84-5.74,4.36-8.11,6.96-3.12,3.92-4.24,8.23-7.94,9.25-1.9.51-4.02.06-6.02-.51-3.66-.98-7.71-3.17-8.05-7.23-.16-1.73.18-3.45.19-5.18.08-3.33-.9-7.34.79-10.04.72-1.26,1.65-2.42,2.12-3.81.58-1.6.66-3.34,1.14-4.97.5-1.49,2.29-1.79,5.4-5.79,2.88-2.89,6.65-.41,9.54,1.83l.18.14Z"/>
    <path class="cls-1" d="M114.22,5.84c1.11,1.04,1.9,2.44,2.67,3.75,1.36,2.33,3.1,4.67,3.02,7.44-.15,3.66.17,4.96-2.11,7.84-1.28,1.68-3.45,3.28-4.92,4.79-2.26,2.33-6.78,2.53-10.16,2.12-1.7-.19-5.06-.63-6.58-1.58-2.85-1.57-3.42-.61-4.67-3.74-2.08-4.24-2.16-9.33-1.61-13.95.64-3.25,3.13-5.8,5.75-7.86,5.28-4.67,13.39-3.29,18.45,1.06l.15.14Z"/>
    <path class="cls-1" d="M51.05,7.16c3.33,3.66,5.31,9.13,2.24,13.38-1.96,3.64-3.22,6.41-7.17,8.29-5.26,4-14.17.38-16.18-3.18-2.39-4.23-5.12-8.25-3.18-13.16,1.72-3.96,3.14-7.03,6.84-8.39,1.86-.72,6.28-.94,8.31-1.02,3.28-.07,6.71,1.58,9.01,3.93l.14.15Z"/>
  </g>
  <g>
    <path class="cls-1" d="M170.15,3.02c9.42-2.14,18.7,7.04,18.67,17.01.2,2.77.06,5.78-.11,8.71-.03,6.19-2.15,14.19,4.1,12.35,5.06-1.5,9.76-4.72,13.11-8.77,3.63-4.69,6.09-11.15,10.59-15.6,1.63-1.76,3.38-3.42,5.07-5.14,5.65-5.55,9.39-12.2,17.19-11.52,4.05.22,9.11,2.77,5.36,7.19-4.59,5.33-8.37,11.41-11.03,18.02-1.79,4.17-3.57,8.66-6.73,12.78-2.55,3.58-6.35,6.78-9.23,9.87-1.04,1.2-1.59,2.24-1.53,3.22,1.14,4.22,6.66,6.73,9.14,10.4,4.39,5.34,5.24,12.45,8.02,18.53,4.01,8.63,10.14,15.56,15.63,23.58,2.3,3.39,5.42,7.82,2.68,11.23-3.07,3.13-8.75,3.1-12.7,1.6-5.89-2.32-8.04-9.97-13.07-14.28-5.57-4.57-8.35-10.29-11.93-16.41-3.66-4.84-8.23-9.91-12.63-14.38-6.53-5.88-12.38,2.35-13.55,9.4-.93,4.39-1.38,9.04-1.63,13.63-1.02,6.78,3.27,17.46-3.47,20.98-10.07,3.15-14.82-5.69-14.78-14.76-.37-12.93,2.51-25.8-1-38.53-1.42-6.26.4-12.64-.18-18.81-.87-5.92-1.22-11.79-.34-17.77,1.33-7.62-5.2-18.98,4.1-22.44l.24-.07Z"/>
    <path class="cls-1" d="M279.95,70.93c-7.8-.69-19.37-1.67-25.67,4.29-3.24,4.28,1.75,10.22,7.48,13.2,3.97,2.03,8.41,3.01,12.85,3.22,6.76.73,13.99-2.33,20.55-1.72,4.95.56,6.82,5.63,4.75,9.65-7.31,12.41-27.51,9.51-39.54,6.74-6.29-1.43-12.95-2.84-17.1-7.1-6.46-7.27-8.7-17.59-9.23-27.2-.06-8.88-1.51-18.35,2.04-26.68,4.5-11.55,11.87-18.53,24.37-19.63,14.52-1.81,32.8-2.82,42.16,10.59,4.26,6.01,5.31,14.27,5.16,21.9.25,14.16-16.68,14.43-27.52,12.78l-.3-.03ZM287.16,52.24c2.52-9-7.31-16.54-15.71-16.5-6.12-.22-11.78,4.12-15.17,9.49-2.98,4.21-3.77,11.54,2.44,13.1,3.06.88,6.59.58,9.85.53,6.37-.19,15.99.43,18.5-6.36l.09-.26Z"/>
    <path class="cls-1" d="M349.16,79.76c-4.51-.42-10.53.28-15.53,1.04-3.1.5-6.35.76-8.86,2.49-4.58,3.86,2.16,10.68,7.65,14.05,3.34,1.94,7.19,2.56,11.01,2.14,6.14-.55,12.8-3.52,18.93-2.94,8.44.87,8.25,9.45,1.33,13.3-12.37,6.72-33.38,8.86-45.26.59-7.7-4.78-15.06-10.93-15.16-20.33-.43-5.62.24-11.28.21-16.91.09-6.02-.55-12.13.74-18.05,2.56-11.32,11.24-22.13,23.31-23.31,14.45-1.14,32.6-3.59,42.36,9.53,6.42,8.12,7.8,20.37,3.45,29.95-4.24,9.29-15.15,9.86-23.92,8.47l-.27-.02ZM358.4,60.19c-1.3-8.03-13.22-18.85-21.8-16.51-6.86,2.17-14.47,10.57-14.91,17.68.57,4.6,6.49,3.97,10.04,4.2,7.68-.44,25.25,6.5,26.68-5.11v-.27Z"/>
    <path class="cls-1" d="M413.97,109.48c-13.54-2.71-20.75-2.81-22.08,11.96-.64,6.37.74,12.99-2.24,16.83-3.1,4.07-9.42,4.29-13.83,2.49-5.9-2.27-5.52-8.94-4.53-14.23.81-4.35,1.25-8.84,1.57-13.27,1.52-9.49-1.42-18.8-.84-28.24,1.95-10.15-.84-20.21-.11-30.45.25-3.75.78-7.49.79-11.26.39-4.75-2.46-11.75,2.84-13.63,2.74-.84,7.72.57,11.93,1.02,7.66,1.26,14.22-3.55,21.26-6.03,9.85-3.2,21.3.8,28.28,7.83,6.38,6.87,8.4,16.6,12.39,24.89,4.65,10.02-1.13,18.89-4.48,28.35-1.64,4.48-2.14,9.47-4.06,13.85-4.17,10.33-16.68,11.46-26.55,9.93l-.32-.05ZM429.73,64.96c1.26-9.48-2.51-20.79-12.68-23.35-6.65-1.84-14.38-2.07-18.86,3.24-7.86,10.12-10.16,27.92-3.76,39.66,3.87,7.98,10.84,14.88,20.39,11.6,7.54-1.93,12.15-7.74,12.38-15.45.51-5.22,1.78-10.43,2.49-15.4l.04-.31Z"/>
    <path class="cls-1" d="M495.04,78.51c-4.27,1.27-9.75,2.45-14.61,2.95-3.37.61-7.07.86-9.14,3.68-2.09,3.16,1.74,8.99,6.82,11.58,5.67,2.99,12.42,3.57,18.62,2.08,4.01-.81,8.49-2.79,12.45-2.47,4.29.29,7.17,4.28,5.8,8.17-1.19,3.92-5.74,7.01-10.44,9.18-9.5,4.51-21.18,4.95-31.31,2.03-5.37-1.96-9.76-6.41-14.55-10.13-6.23-4.29-9.95-10.51-10.17-18.18-.35-11.1-3.44-22.87-1.02-33.64,3.53-14.01,17.71-21.51,30.87-24.33,8.41-1.1,17.64.99,25.8,3.45,10.72,4.95,16.22,17.81,16.68,29.46,2.44,17.95-14.17,12.45-25.52,16.1l-.27.07ZM503.41,59.65c-3.01-9.19-14.51-17.15-24.17-13.23-6.37,1.88-15.63,13.66-8.01,18.62,3.16,1.34,7.06.34,10.47.38,6.06-.28,12.15,2.67,17.81.43,2.54-.9,4.4-3.2,3.95-5.95l-.04-.25Z"/>
    <path class="cls-1" d="M515.21,33.46c.3-6.2,7.01-10.44,13.27-9.18,2.3.44,4.41,1.52,6.5,2.55,3.81,2.07,7.92,3.13,12.09,1.38,2.78-1.01,5.53-2.54,8.39-3.42,6.27-2.09,13.74-.76,15.26,5.58,1.68,7.5-4.7,11.35-11.62,11.21-10.4-.08-17.55,4.81-18.66,15.33-1.33,9.85-.48,19.67-1.01,29.9-.32,4.6-.47,9.71-3.08,13.63-2.93,4.64-10.67,5.9-14.53,2.17-2.7-2.52-3.41-6.39-3.64-9.9-.67-7.68,1.01-15.42,1.32-23.02.41-7.28-.46-14.59-1.97-21.78-.86-4.88-2.53-9.29-2.34-14.18l.02-.28Z"/>
  </g>
</svg>