<?xml version="1.0" encoding="UTF-8"?>
<svg id="Layer_3" data-name="Layer 3" xmlns="http://www.w3.org/2000/svg" viewBox="0 0 336.97 90.1">
  <defs>
    <style>
      .cls-1 {
        fill: #fff;
      }
    </style>
  </defs>
  <path class="cls-1" d="M128.58,88.92v-51.52h16.22v51.52h-16.22ZM161.55,88.92v-30.1c0-2.61-.79-4.65-2.38-6.1-1.59-1.45-3.55-2.17-5.88-2.17-1.63,0-3.07.34-4.35,1.01-1.27.67-2.28,1.61-3.02,2.81s-1.11,2.69-1.11,4.45l-6.25-2.76c0-4.1.88-7.61,2.65-10.55,1.77-2.93,4.17-5.19,7.21-6.78,3.04-1.59,6.47-2.38,10.28-2.38,3.6,0,6.84.81,9.7,2.44s5.14,3.89,6.84,6.78c1.7,2.9,2.54,6.36,2.54,10.39v32.97h-16.23ZM194.52,88.92v-30.1c0-2.61-.79-4.65-2.38-6.1-1.59-1.45-3.55-2.17-5.88-2.17-1.63,0-3.07.34-4.35,1.01-1.27.67-2.28,1.61-3.02,2.81s-1.11,2.69-1.11,4.45l-9.33-1.27c.14-4.38,1.18-8.14,3.13-11.29,1.94-3.14,4.52-5.58,7.74-7.31,3.21-1.73,6.84-2.6,10.86-2.6s7.47.83,10.55,2.49c3.07,1.66,5.51,4.03,7.31,7.1,1.8,3.07,2.7,6.77,2.7,11.08v31.91h-16.22Z"/>
  <path class="cls-1" d="M312.9,90.09c-4.74,0-8.92-.97-12.56-2.92s-6.48-4.63-8.53-8.06c-2.05-3.43-3.07-7.37-3.07-11.82v-29.89h16.22v29.68c0,1.77.3,3.29.9,4.56.6,1.27,1.5,2.26,2.7,2.97,1.2.71,2.65,1.06,4.35,1.06,2.4,0,4.31-.76,5.72-2.28s2.12-3.62,2.12-6.31v-29.68h16.22v29.79c0,4.52-1.02,8.5-3.07,11.93s-4.88,6.11-8.48,8.06c-3.6,1.94-7.77,2.92-12.51,2.92h0Z"/>
  <path class="cls-1" d="M86.2,89.53c-4.69,0-8.87-1.15-12.55-3.46s-6.58-5.46-8.71-9.45c-2.14-3.99-3.2-8.54-3.2-13.65s1.07-9.66,3.2-13.65c2.13-3.99,5.04-7.14,8.71-9.45,3.67-2.31,7.86-3.46,12.55-3.46,3.43,0,6.53.67,9.29,2,2.76,1.33,5.02,3.17,6.77,5.51,1.75,2.35,2.73,5.02,2.94,8.03v22.05c-.21,3.01-1.17,5.69-2.89,8.03-1.72,2.35-3.97,4.18-6.77,5.51-2.8,1.33-5.92,1.99-9.35,1.99h.01ZM89.46,75.04c3.43,0,6.19-1.14,8.29-3.41,2.1-2.27,3.15-5.16,3.15-8.66,0-2.38-.47-4.48-1.42-6.3s-2.28-3.24-3.99-4.25c-1.72-1.01-3.69-1.52-5.93-1.52s-4.22.51-5.93,1.52c-1.72,1.02-3.08,2.43-4.1,4.25-1.02,1.82-1.52,3.92-1.52,6.3s.49,4.38,1.47,6.2,2.34,3.25,4.09,4.3,3.71,1.58,5.88,1.58h0ZM100.27,88.48v-13.75l2.42-12.39-2.42-12.39v-12.49h15.75v51.03h-15.75Z"/>
  <path class="cls-1" d="M225.03,88.92V7.74L241.25.01v50.01l-2.65,12.51,2.44,12.51v13.89h-16.01,0ZM254.71,89.98c-3.46,0-6.64-.72-9.54-2.17-2.9-1.45-5.27-3.39-7.1-5.83-1.84-2.44-2.9-5.18-3.18-8.21v-21.73c.28-3.04,1.34-5.74,3.18-8.11,1.84-2.37,4.2-4.22,7.1-5.56,2.9-1.34,6.08-2.01,9.54-2.01,4.88,0,9.2,1.17,12.98,3.5,3.78,2.33,6.75,5.51,8.9,9.54,2.16,4.03,3.23,8.62,3.23,13.78s-1.08,9.75-3.23,13.78c-2.16,4.03-5.12,7.21-8.9,9.54-3.78,2.33-8.11,3.5-12.98,3.5v-.02ZM251.85,75.35c2.26,0,4.26-.53,5.99-1.59s3.09-2.51,4.08-4.35c.99-1.84,1.48-3.92,1.48-6.25s-.5-4.52-1.48-6.36c-.99-1.84-2.35-3.27-4.08-4.29-1.73-1.02-3.73-1.54-5.99-1.54s-4.28.51-6.04,1.54c-1.77,1.03-3.13,2.46-4.08,4.29-.95,1.84-1.43,3.96-1.43,6.36s.49,4.52,1.48,6.36c.99,1.84,2.35,3.27,4.08,4.29,1.73,1.03,3.73,1.54,5.99,1.54h0Z"/>
  <path class="cls-1" d="M0,88.38V0l15.96,7.55.26,41.93-2.65,12.51,2.44,12.51v13.89H0ZM29.68,89.44c-3.46,0-6.64-.72-9.54-2.17-2.9-1.45-5.27-3.39-7.1-5.83-1.84-2.44-2.9-5.18-3.18-8.21v-21.73c.28-3.04,1.34-5.74,3.18-8.11,1.84-2.37,4.2-4.22,7.1-5.56,2.9-1.34,6.08-2.01,9.54-2.01,4.88,0,9.2,1.17,12.98,3.5,3.78,2.33,6.75,5.51,8.9,9.54,2.16,4.03,3.23,8.62,3.23,13.78s-1.08,9.75-3.23,13.78c-2.16,4.03-5.12,7.21-8.9,9.54-3.78,2.33-8.11,3.5-12.98,3.5v-.02ZM26.82,74.81c2.26,0,4.26-.53,5.99-1.59s3.09-2.51,4.08-4.35c.99-1.84,1.48-3.92,1.48-6.25s-.5-4.52-1.48-6.36c-.99-1.84-2.35-3.27-4.08-4.29-1.73-1.02-3.73-1.54-5.99-1.54s-4.28.51-6.04,1.54c-1.77,1.03-3.13,2.46-4.08,4.29-.95,1.84-1.43,3.96-1.43,6.36s.49,4.52,1.48,6.36c.99,1.84,2.35,3.27,4.08,4.29,1.73,1.03,3.73,1.54,5.99,1.54h0Z"/>
  <g>
    <path class="cls-1" d="M289.4.01s8.48,7.28,15.4,0c0,0,1.25,6.4-.02,14.56,0,0-7.74-6.41-15.38,0,0,0-1.49-6.61,0-14.56Z"/>
    <path class="cls-1" d="M304.8.01s8.8,7.28,15.88,0c0,0,1.39,6.4.13,14.56,0,0-8.07-6.4-16.03,0,0,0-1.48-6.61.02-14.56Z"/>
    <path class="cls-1" d="M320.68.01s8.53,7.28,15.56,0c0,0,1.47,6.4.21,14.56,0,0-7.94-6.65-15.64,0,0,0-1.62-6.61-.13-14.56Z"/>
  </g>
</svg>