<?xml version="1.0" encoding="utf-8"?>
<!-- Generator: Adobe Illustrator 27.8.1, SVG Export Plug-In . SVG Version: 6.00 Build 0)  -->
<svg version="1.1" id="Layer_5" xmlns="http://www.w3.org/2000/svg" xmlns:xlink="http://www.w3.org/1999/xlink" x="0px" y="0px"
	 viewBox="0 0 792 612" style="enable-background:new 0 0 792 612;" xml:space="preserve">
<g>
	<path d="M446.59,311.9c1.13-4.86,6.51-0.46,13.64-3.91c3.3-1.6,6.51-6.26,9.88-7.92c2.81-1.52,6.14-1.1,8.47-3.51
		c2.4-2.47,3.64-6.07,4.54-9.31c0.33-1.2-5.2-0.44-6.07-0.02c-3.01,1.4-5.36,4.86-7.24,7.42c-2.98,4.03-12.92,2.67-15.77-0.77
		c-7.89-11.92,5.13-24.23,10.6-34.32c-0.82,0.01-3.67-0.9-3.81-2.76c-2.07,1.35-7.52,2.39-7.07-1.2c0.75,0.31,1.2,1.36,2.18,1.37
		c1.93-0.01,5.42-0.89,5.05-3.39c-0.59-1.79-2.36-3.3-2.78-5.18c-7.69-0.72-14.86,4.19-21.29,7.72c0,0-12.98-6.61-17.79-5.65
		c-7.15,1.39-14.93,13.52-5.31,17.01c5.74,0.87,5.56-0.15,12.52-0.65c-0.24,1.44-7.25,6.56-11.49,6.23
		c-8.89-0.32-5.12-12.24-10.59-16.23c0.09-0.38-18.23-10.98-13.67-1.13c3.02,6.47,12.12,7.98,13.21,15.41
		c2.22,13.7,8.56,17,2.05,35.85c-0.23,2.78-5.93,0.9-8.03,2.08c-4.44,1.63-3.14,7.31-2.94,11c0.69,5.93,0.27,13.19,5.03,17.52
		c1.74,5.88-5.56-4.62-6.06-5.68c0,0-3.34-6.15-7.22-6c0,0-5.39,0.15-5.54,1.97c0,0-1.06,2.89,2.59,4.79
		c6.21,3.54,10.13,10.59,17.01,13.29c3.94,2.33,3.88-15.4,10.64-9.44c0.86,0.7,1.48,1.65,2.09,2.57
		c7.01,13.44,0.67,27.97,23.14,17.98c0.14-0.06,1.33,1.54,1.45,1.69c0.28,0.37,0.59,0.59,0.32,0.98c-0.28,0.42-1.27,0.42-1.68,0.33
		c-0.19-0.04-0.38-0.11-0.58-0.13c-2.63-0.27-3.04,3.18-1.5,4.59c1.27,1.17,2.85,1.87,4.33,2.72c1.99,1.15,3.71,2.9,5.41,4.43
		c0.91,0.82,1.78,1.69,2.61,2.59c0.74,0.81,1.42,2.02,2.28,2.68c1.4,1.08,4.77-0.3,6.53-0.15c1.06,0.09,2.27-0.76,2.18-1.95
		c-0.08-1.12-1.37-1.66-2.21-2.11c-3.86-2.12-8.52-4.18-11.82-7.09c-0.68-0.6-2.21-6.26-1.46-6.13c0.96-1.2,3.31-4.14,3.89-5.54
		c13.36,2.81,27.76,2.73,33.64-12.03c4.81-9.32,5.46-26.76-10-21.71c-3.78,0.97-7.18,4.43-11.2,3.96c-1.36-0.36-2.43-2.01-1.7-3.21
		c0.44-0.73,1.45-1.24,1.36-2.09c-2.28-3.57-5.81,3.56-3.74,5.82c5.66,7.71,13.79-2.2,20.28-2.27c8.57,5.12,2.64,19.18-2.91,24.61
		c-5.48,5.52-16.9,3.7-23.96,2.96c0,0,6.51-10.34,0.63-15.38c0,0-4.63-4.15-4.15-6.57C444.44,322.68,444.49,317.02,446.59,311.9z
		 M427.4,354.28c-1.71,0.05-1.22-1.63-1.22-1.63c0.67-1.79,8.9-1.89,8.9-1.89c0.67,1.28,1.18,1.89,1.18,1.89
		C431.7,354.8,427.4,354.28,427.4,354.28z"/>
	<path d="M462.87,257.11c0.72,0.7,1.11,0.89,2.51,1.11c1.42-2.66,2.54-5.81,0.87-7.66c1.2,1.33-1.41,2.62-2.35,3.01
		c-0.68,0.28-1.8,0.18-1.71,1.19C462.26,255.59,462.18,256.44,462.87,257.11z"/>
</g>
</svg>
