<?xml version="1.0" encoding="UTF-8"?>
<svg id="Layer_1" data-name="Layer 1" xmlns="http://www.w3.org/2000/svg" viewBox="0 0 469.59 361.22">
  <defs>
    <style>
      .cls-1 {
        fill: #fff;
      }
    </style>
  </defs>
  <path class="cls-1" d="M62.86,361.22c-13.77,0-24.78-1.82-33.12-5.41-8.29-3.59-14.63-8.47-18.97-14.54-4.34-6.08-7.24-13.01-8.63-20.72-1.43-7.75-2.14-15.74-2.14-24.02V23.21h47.37v268.4c0,10.81,2.14,19.09,6.39,24.78,4.24,5.69,10.82,8.95,19.63,9.71l12.1.43v30.67c-3.76,1.2-7.58,2.2-11.58,2.92s-7.62,1.1-11.06,1.1Z"/>
  <path class="cls-1" d="M227.84,361.22c-22.02,0-41.36-4.77-58.14-14.25-16.77-9.48-29.83-23.06-39.17-40.74-9.34-17.68-14.01-38.7-14.01-63.09s4.29-45.37,12.82-63.86c8.53-18.49,20.87-32.98,37.03-43.41,16.15-10.48,35.6-15.73,58.38-15.73s41.13,4.77,56.57,14.34c15.39,9.58,27.07,23.02,35.03,40.27,7.91,17.3,11.91,37.69,11.91,61.14v15.92h-163.41c-.14,13.92,2.1,26.35,6.72,37.36s11.58,19.68,20.78,26.02c9.2,6.34,20.68,9.53,34.45,9.53s25.92-3.15,36.03-9.44,16.73-15.63,19.87-28.07h44.46c-2.72,15.87-9.05,29.31-19.06,40.41-10.01,11.06-22.06,19.4-36.12,25.02-14.2,5.77-28.88,8.58-44.13,8.58ZM164.74,220.69h117.61c0-12.1-2.1-23.16-6.29-33.12-4.19-9.96-10.58-17.82-19.2-23.59-8.63-5.77-19.4-8.63-32.45-8.63s-24.4,3.24-33.22,9.67c-8.82,6.43-15.44,14.68-19.87,24.68-4.38,10.06-6.58,20.4-6.58,30.98Z"/>
  <path class="cls-1" d="M469.59,326v31.09c-3.76,1.21-7.62,2.23-11.58,2.96-3.96.78-7.67,1.17-11.1,1.17-13.77,0-24.78-1.85-33.12-5.49-8.29-3.69-14.63-8.6-18.97-14.77s-7.2-13.21-8.63-21.03c-1.24-6.8-1.95-13.75-2.05-20.94-.1-1.17-.1-174.33-.1-174.33h46.22l1.14,165.83c0,11.03,2.14,19.38,6.39,25.21,4.29,5.78,10.82,9.03,19.63,9.81l12.15.49Z"/>
  <path class="cls-1" d="M454.48,59l-3.72-3.72,3.57-3.57c9.34-9.29,9.34-24.59,0-33.88l-10.77-10.82c-9.34-9.34-24.59-9.34-33.93,0l-3.57,3.57-3.29-3.29c-9.29-9.29-24.59-9.29-33.88,0l-10.82,10.82c-9.34,9.34-9.34,24.59,0,33.93l3.96,3.96-3.57,3.57c-9.34,9.34-9.34,24.59,0,33.93l10.82,10.82c9.29,9.29,24.59,9.29,33.93,0l3.57-3.57,2.95,2.95c9.34,9.34,24.59,9.34,33.93,0l10.82-10.82c9.29-9.29,9.34-24.59,0-33.88ZM405.78,83.3c-2.62-4.96-4.1-10.63-4.1-16.58v-2.86c-2.57,2.29-5.48,3.91-8.63,4.91,1.1-3.57,3-6.86,5.72-9.63h-4.91c-5.48,0-10.72-1.24-15.34-3.48,5-2.72,10.77-4.24,16.82-4.24h3.24c-2.53-2.53-4.29-5.48-5.38-8.63,3.05.91,5.91,2.43,8.48,4.62v-3.57c0-5.96,1.48-11.58,4.1-16.54,2.57,4.96,4.05,10.58,4.05,16.54v4.24c2.81-2.76,6.15-4.72,9.67-5.81-1,3.34-2.81,6.48-5.34,9.15h4.05c5.53,0,10.72,1.24,15.39,3.48-5,2.72-10.77,4.24-16.87,4.24h-3.19l.43.43c2.62,2.62,4.48,5.67,5.62,8.91-3.53-1.1-6.96-2.95-9.77-5.77v4c0,5.96-1.48,11.63-4.05,16.58Z"/>
</svg>