<?xml version="1.0" encoding="UTF-8"?>
<svg id="Layer_5" data-name="Layer 5" xmlns="http://www.w3.org/2000/svg" viewBox="0 0 467.49 230.22">
  <defs>
    <style>
      .cls-1 {
        fill: #fff;
      }
    </style>
  </defs>
  <path class="cls-1" d="M0,139.82L49.7,46.95l9.59,14.47,14.52,78.39-11.65-14.38-8.34-35.84-32.81,21.94-10.7,17.11-10.31,11.17ZM25.38,103.89l21.89-18.85,1.75-24.18-23.64,43.03Z"/>
  <path class="cls-1" d="M79.51,126.15l-1.64-77.47,9.85,10.36,26.36,50.96-6.98-55.68,9.06,19.66,1.78,52.18-11.09-19.32-20.82-39.78-2.12,44.69-4.41,14.41Z"/>
  <path class="cls-1" d="M254,126.58l-1.48-81.38,12.54,14.2,14.27,42.71,16.69-44.95,10.69-11.27-2.05,80.68-5.9-19.81v-46.19l-19.43,56.37-19.43-56.37-1.91,46.19-3.99,19.81Z"/>
  <path class="cls-1" d="M386.53,125.71l-9.67-85.42,8.75,23.22,7.27,48.94,15.41-26.14,12.58-8-34.33,47.41Z"/>
  <path class="cls-1" d="M396.73,137.7l38.78-53.6-18.72-28.56-4.19-12.78,27.45,32.48,27.44-32.48-1.84,13.19-20.4,23.57-26.35,39.33-22.17,18.84Z"/>
  <path class="cls-1" d="M310.08,139.81l22.58-82.63,13.22-14.42,34.06,97.05-9.72-9.31-7.34-17.79-31.71-21.01-14,38.91-7.09,9.19ZM335.82,80.3l27.43,25.43-21.46-47.27-5.97,21.85Z"/>
  <path class="cls-1" d="M188.43,148.67l70.63,81.55,2.88-30.22-17.26-70.49-6.25-17.28,3.37-38.84-3.37-24.95-6.72-14.87L199.11,2.41l-24.93-2.41h-44.13L51.88,45.09l63.79,2.88,6.23,7.68,15.83,63.79,20.98,21.26,82.93,71.5-44.92-48.65-27.15-27.68,12.83,8.78,6.03,4.02ZM162.19,50.85s78.17-9.6,49.87,70.98c0,0-80.56,8.64-49.87-70.98Z"/>
  <polygon class="cls-1" points="213.51 74.35 213.51 92.57 209.2 99.77 201.03 109.35 191.92 112.72 177.05 112.72 171.54 109.35 165.07 102.16 162.66 91.14 162.66 81.54 166.03 73.86 172.26 63.79 180.4 59.95 193.35 59.95 201.03 62.83 206.79 66.67 213.51 74.35"/>
</svg>