<?xml version="1.0" encoding="UTF-8"?>
<svg id="banner_shade" data-name="banner shade" xmlns="http://www.w3.org/2000/svg" viewBox="0 0 276.32 45">
  <defs>
    <style>
      .cls-1 {
        isolation: isolate;
      }

      .cls-2 {
        fill: #fff;
      }
    </style>
  </defs>
  <g class="cls-1">
    <g class="cls-1">
      <g class="cls-1">
        <path class="cls-2" d="M6.78,2.88h-2.22c-.36,0-.54.3-.66.66L.78,15.48c-.06.24-.24.36-.48.36s-.3-.12-.3-.42V.24c0-.12.12-.24.3-.24h17.58c.18,0,.3.12.3.24v15.18c0,.3-.06.42-.3.42s-.42-.12-.48-.36l-3.12-11.94c-.12-.36-.3-.66-.66-.66h-2.22v37.8c0,.72.06,1.26.48,1.68l1.8,1.74c.18.18.42.36.42.54s-.06.36-.36.36H4.44c-.3,0-.36-.18-.36-.36s.24-.36.42-.54l1.8-1.74c.42-.42.48-.96.48-1.68V2.88Z"/>
        <path class="cls-2" d="M33.12,20.52V4.32c0-.72-.12-1.26-.54-1.68l-1.8-1.74c-.12-.18-.42-.36-.42-.54s.12-.36.36-.36h9.42c.24,0,.36.18.36.36s-.3.36-.42.54l-1.8,1.74c-.42.42-.54.96-.54,1.68v36.36c0,.72.12,1.26.54,1.68l1.8,1.74c.12.18.42.36.42.54s-.12.36-.36.36h-9.42c-.24,0-.36-.18-.36-.36s.3-.36.42-.54l1.8-1.74c.42-.42.54-.96.54-1.68v-16.98h-6.12v16.98c0,.72.12,1.26.54,1.68l1.8,1.74c.12.18.42.36.42.54s-.12.36-.36.36h-9.42c-.24,0-.36-.18-.36-.36s.3-.36.42-.54l1.8-1.74c.42-.42.54-.96.54-1.68V4.32c0-.72-.12-1.26-.54-1.68l-1.8-1.74c-.12-.18-.42-.36-.42-.54s.12-.36.36-.36h9.42c.24,0,.36.18.36.36s-.3.36-.42.54l-1.8,1.74c-.42.42-.54.96-.54,1.68v16.2h6.12Z"/>
        <path class="cls-2" d="M49.32,20.58h1.32c.3,0,.54-.12.66-.42l2.1-4.2c.12-.24.18-.36.36-.36s.24.12.24.36v12.72c0,.18-.06.3-.24.3-.24,0-.3-.18-.42-.42l-2.04-4.38c-.12-.3-.36-.42-.66-.42h-1.32v18.24h3.42c.78,0,1.38-.36,1.62-1.08l3.24-11.52c.06-.24.24-.36.42-.36s.3.18.3.36v15.06c0,.3-.18.54-.48.54h-15.54c-.24,0-.36-.18-.36-.36s.3-.3.42-.54l1.8-1.74c.42-.42.54-.96.54-1.68V4.32c0-.72-.12-1.26-.54-1.68l-1.8-1.74c-.12-.18-.42-.36-.42-.54s.12-.36.36-.36h15.54c.24,0,.48.24.48.54v14.94c0,.24-.12.36-.3.36-.24,0-.42-.18-.48-.42l-3.24-11.28c-.24-.78-.78-1.14-1.56-1.14h-3.42v17.58Z"/>
        <path class="cls-2" d="M70.44,4.32c0-.72-.12-1.26-.54-1.68l-1.8-1.74c-.12-.18-.42-.36-.42-.54s.12-.36.36-.36h7.92c6.06,0,9.66,5.82,9.66,21.36,0,19.56-3.6,23.64-9.66,23.64h-7.92c-.24,0-.36-.18-.36-.36s.3-.3.42-.54l1.8-1.74c.42-.42.54-.96.54-1.68V4.32ZM75.06,42h1.08c2.34,0,4.56-2.28,4.56-20.64,0-16.08-2.22-18.36-4.56-18.36h-1.08v39Z"/>
        <path class="cls-2" d="M95.4,20.58h1.32c.3,0,.54-.12.66-.42l2.1-4.2c.12-.24.18-.36.36-.36s.24.12.24.36v12.72c0,.18-.06.3-.24.3-.24,0-.3-.18-.42-.42l-2.04-4.38c-.12-.3-.36-.42-.66-.42h-1.32v18.24h3.42c.78,0,1.38-.36,1.62-1.08l3.24-11.52c.06-.24.24-.36.42-.36s.3.18.3.36v15.06c0,.3-.18.54-.48.54h-15.54c-.24,0-.36-.18-.36-.36s.3-.3.42-.54l1.8-1.74c.42-.42.54-.96.54-1.68V4.32c0-.72-.12-1.26-.54-1.68l-1.8-1.74c-.12-.18-.42-.36-.42-.54s.12-.36.36-.36h15.54c.24,0,.48.24.48.54v14.94c0,.24-.12.36-.3.36-.24,0-.42-.18-.48-.42l-3.24-11.28c-.24-.78-.78-1.14-1.56-1.14h-3.42v17.58Z"/>
      </g>
    </g>
    <g class="cls-1">
      <g class="cls-1">
        <path class="cls-2" d="M117.7,34.98c-.06-.3-.24-.54-.54-.54h-4.44c-.18,0-.3.18-.36.42l-.9,6.6c-.06.42.06.78.3,1.08l1.32,1.38c.24.3.6.54.6.72s-.12.36-.42.36h-6.9c-.24,0-.36-.18-.36-.36s.24-.42.42-.6l1.68-1.68c.36-.36.42-.96.48-1.5L114.04.54c.06-.3.18-.54.48-.54h2.22c.3,0,.48.3.54.66l5.7,40.26c.06.6.24,1.26.66,1.62l1.74,1.56c.18.18.36.36.36.54s-.12.36-.42.36h-8.64c-.3,0-.42-.18-.42-.36s.24-.36.42-.54l1.62-1.62c.24-.24.36-.66.3-1.2l-.9-6.3ZM116.86,31.26c.18,0,.3-.18.24-.42l-2.1-14.7h-.12l-1.98,14.76c-.06.24.06.36.18.36h3.78Z"/>
      </g>
    </g>
    <g class="cls-1">
      <g class="cls-1">
        <path class="cls-2" d="M130.28,2.88h-2.22c-.36,0-.54.3-.66.66l-3.12,11.94c-.06.24-.24.36-.48.36s-.3-.12-.3-.42V.24c0-.12.12-.24.3-.24h17.58c.18,0,.3.12.3.24v15.18c0,.3-.06.42-.3.42s-.42-.12-.48-.36l-3.12-11.94c-.12-.36-.3-.66-.66-.66h-2.22v37.8c0,.72.06,1.26.48,1.68l1.8,1.74c.18.18.42.36.42.54s-.06.36-.36.36h-9.3c-.3,0-.36-.18-.36-.36s.24-.36.42-.54l1.8-1.74c.42-.42.48-.96.48-1.68V2.88Z"/>
        <path class="cls-2" d="M156.62,20.52V4.32c0-.72-.12-1.26-.54-1.68l-1.8-1.74c-.12-.18-.42-.36-.42-.54s.12-.36.36-.36h9.42c.24,0,.36.18.36.36s-.3.36-.42.54l-1.8,1.74c-.42.42-.54.96-.54,1.68v36.36c0,.72.12,1.26.54,1.68l1.8,1.74c.12.18.42.36.42.54s-.12.36-.36.36h-9.42c-.24,0-.36-.18-.36-.36s.3-.36.42-.54l1.8-1.74c.42-.42.54-.96.54-1.68v-16.98h-6.12v16.98c0,.72.12,1.26.54,1.68l1.8,1.74c.12.18.42.36.42.54s-.12.36-.36.36h-9.42c-.24,0-.36-.18-.36-.36s.3-.36.42-.54l1.8-1.74c.42-.42.54-.96.54-1.68V4.32c0-.72-.12-1.26-.54-1.68l-1.8-1.74c-.12-.18-.42-.36-.42-.54s.12-.36.36-.36h9.42c.24,0,.36.18.36.36s-.3.36-.42.54l-1.8,1.74c-.42.42-.54.96-.54,1.68v16.2h6.12Z"/>
        <path class="cls-2" d="M189.62,21.3c0,11.34-.78,23.7-8.04,23.7s-7.98-12.36-7.98-23.7c0-8.64.78-21.3,7.98-21.3s8.04,12.66,8.04,21.3ZM178.52,21.36c0,15.6,1.32,20.64,3.06,20.64s3.12-5.04,3.12-20.64c0-13.32-1.32-18.36-3.12-18.36s-3.06,5.04-3.06,18.36Z"/>
        <path class="cls-2" d="M199.4,20.58h1.32c.3,0,.54-.12.66-.42l1.98-4.14c.12-.24.24-.42.42-.42s.3.12.3.36v12.66c0,.24-.06.36-.24.36s-.24-.18-.36-.42l-2.1-4.38c-.12-.3-.36-.42-.66-.42h-1.32v16.92c0,.72.06,1.32.54,1.68l2.22,1.74c.18.18.42.36.42.54s-.12.36-.36.36h-9.84c-.24,0-.36-.18-.36-.36s.3-.3.42-.54l1.8-1.74c.42-.42.54-.96.54-1.68V4.32c0-.72-.12-1.26-.54-1.68l-1.8-1.74c-.12-.18-.42-.36-.42-.54s.12-.36.36-.36h15.54c.3,0,.48.24.48.54v15c0,.18-.12.3-.3.3s-.42-.18-.48-.42l-3.24-11.28c-.24-.78-.78-1.14-1.56-1.14h-3.42v17.58Z"/>
        <path class="cls-2" d="M228.86,34.98c-.06-.3-.24-.54-.54-.54h-4.44c-.18,0-.3.18-.36.42l-.9,6.6c-.06.42.06.78.3,1.08l1.32,1.38c.24.3.6.54.6.72s-.12.36-.42.36h-6.9c-.24,0-.36-.18-.36-.36s.24-.42.42-.6l1.68-1.68c.36-.36.42-.96.48-1.5L225.2.54c.06-.3.18-.54.48-.54h2.22c.3,0,.48.3.54.66l5.7,40.26c.06.6.24,1.26.66,1.62l1.74,1.56c.18.18.36.36.36.54s-.12.36-.42.36h-8.64c-.3,0-.42-.18-.42-.36s.24-.36.42-.54l1.62-1.62c.24-.24.36-.66.3-1.2l-.9-6.3ZM228.02,31.26c.18,0,.3-.18.24-.42l-2.1-14.7h-.12l-1.98,14.76c-.06.24.06.36.18.36h3.78Z"/>
        <path class="cls-2" d="M245.12,40.68c0,.72.12,1.26.54,1.68l1.8,1.74c.12.18.42.36.42.54s-.12.36-.36.36h-9.42c-.24,0-.36-.18-.36-.36s.3-.36.42-.54l1.8-1.74c.42-.42.54-.96.54-1.68V4.32c0-.72-.12-1.26-.54-1.68l-1.8-1.74c-.12-.18-.42-.36-.42-.54s.12-.36.36-.36h7.5c6.24,0,9.48,3.3,9.48,11.1,0,6.66-2.34,9.36-4.44,10.68,2.04,1.08,3.84,3.42,3.84,6.72v12.54c0,.42.24.78.54,1.08l1.92,2.04c.24.24.48.48.48.66s-.3.18-.6.18h-3.12c-2.76,0-3.84-1.8-3.84-3.84v-12.9c0-2.64-1.62-4.62-3.72-4.62h-1.02v17.04ZM245.12,20.64h.9c2.94,0,4.14-2.34,4.14-9.54,0-6.12-1.2-8.1-4.14-8.1h-.9v17.64Z"/>
        <path class="cls-2" d="M264.92,2.88h-2.22c-.36,0-.54.3-.66.66l-3.12,11.94c-.06.24-.24.36-.48.36s-.3-.12-.3-.42V.24c0-.12.12-.24.3-.24h17.58c.18,0,.3.12.3.24v15.18c0,.3-.06.42-.3.42s-.42-.12-.48-.36l-3.12-11.94c-.12-.36-.3-.66-.66-.66h-2.22v37.8c0,.72.06,1.26.48,1.68l1.8,1.74c.18.18.42.36.42.54s-.06.36-.36.36h-9.3c-.3,0-.36-.18-.36-.36s.24-.36.42-.54l1.8-1.74c.42-.42.48-.96.48-1.68V2.88Z"/>
      </g>
    </g>
  </g>
</svg>